# xmcd
#
# Track frame offsets: 
#        182
#        13190
#        29927
#        45547
#        74432
#        85190
#        98870
#        109000
#        120355
#        136877
#        149665
#        167147
#        181967
#        202427
#        216357
#        233255
#        242160
#        253030
#        265967
#        280657
#        299532
#        320537
#
# Disc length: 4452 seconds
#
# Revision: 2
# Processed by: cddbd v1.5.2PL0 Copyright (c) Steve Scherf et al.
# Submitted via: ExactAudioCopyFreeDBPlugin 1.0
#
DISCID=57116216
DTITLE=Ray Charles - Ray Charles:  Genius and Soul - The 50th Anniversar
DTITLE=y Collection [Rhino box set]
DYEAR=1997
DGENRE=Rhythm and Blues
TTITLE0=Let the Good Times Roll
TTITLE1=Come Rain or Come Shine
TTITLE2=Tell the Truth (live)
TTITLE3=Drown in My Own Tears (live)
TTITLE4=I'm Movin' On
TTITLE5=My Baby! (I Love Her, Yes I Do)
TTITLE6=Sticks and Stones
TTITLE7=I Wonder
TTITLE8=Georgia on My Mind
TTITLE9=Them That Got
TTITLE10=Ruby
TTITLE11=Hardhearted Hannah
TTITLE12=I've Got News for You
TTITLE13=One Mint Julep
TTITLE14=I'm Gonna Move to the Outskirts of Town
TTITLE15=Hit the Road Jack
TTITLE16=The Danger Zone
TTITLE17=Unchain My Heart
TTITLE18=But on the Other Hand Baby
TTITLE19=Baby, It's Cold Outside (with Betty Carter)
TTITLE20=Ev'ry Time We Say Goodbye (with Betty Carter)
TTITLE21=At the Club
EXTD=
EXTT0=
EXTT1=
EXTT2=
EXTT3=
EXTT4=
EXTT5=
EXTT6=
EXTT7=
EXTT8=
EXTT9=
EXTT10=
EXTT11=
EXTT12=
EXTT13=
EXTT14=
EXTT15=
EXTT16=
EXTT17=
EXTT18=
EXTT19=
EXTT20=
EXTT21=
PLAYORDER=
